<svg xmlns="http://www.w3.org/2000/svg" xmlns:xlink="http://www.w3.org/1999/xlink" xmlns:lucid="lucid" width="3498.52" height="1688.23"><g transform="translate(1943.5 263.5)" lucid:page-tab-id="0_0"><path d="M-2000-500h4000v2000h-4000z" fill="#fff"/><path d="M280 196a6 6 0 0 1 6-6h148a6 6 0 0 1 6 6v148a6 6 0 0 1-6 6H286a6 6 0 0 1-6-6z" stroke="#1071e5" stroke-width="7" fill="#cfe4ff"/><use xlink:href="#a" transform="matrix(1,0,0,1,285,195) translate(18.37890625 90.3125)"/><path d="M800-254a6 6 0 0 1 6-6h148a6 6 0 0 1 6 6v148a6 6 0 0 1-6 6H806a6 6 0 0 1-6-6z" stroke="#1071e5" stroke-width="7" fill="#cfe4ff"/><use xlink:href="#b" transform="matrix(1,0,0,1,805,-255) translate(6.708984375 62.1875)"/><use xlink:href="#c" transform="matrix(1,0,0,1,805,-255) translate(40.478515625 120.265625)"/><path d="M883.48 353h-6.96V164.2h6.96zm0-237.2h-6.96V-96.5h6.96z" stroke="#1071e5" stroke-width=".05" fill="#1071e5"/><path d="M895-89.53h-30v-6.94h30z" stroke="#1071e5" stroke-width=".05" fill="#1071e5"/><path d="M880 369.5l-7.5-13h15z" fill="#1071e5"/><path d="M880 376.45l-13.52-23.4h27.04zM878.52 360l1.48 2.55 1.48-2.56z" stroke="#1071e5" stroke-width=".05" fill="#1071e5"/><use xlink:href="#d" transform="matrix(1,0,0,1,743.0859375,115.80078125) translate(0 38.75)"/><path d="M800 386a6 6 0 0 1 6-6h148a6 6 0 0 1 6 6v148a6 6 0 0 1-6 6H806a6 6 0 0 1-6-6z" stroke="#1071e5" stroke-width="7" fill="#cfe4ff"/><use xlink:href="#e" transform="matrix(1,0,0,1,805,385) translate(7.1484375 62.1875)"/><use xlink:href="#f" transform="matrix(1,0,0,1,805,385) translate(40.478515625 120.265625)"/><path d="M-310 196a6 6 0 0 1 6-6h148a6 6 0 0 1 6 6v148a6 6 0 0 1-6 6h-148a6 6 0 0 1-6-6z" stroke="#1071e5" stroke-width="7" fill="#cfe4ff"/><use xlink:href="#g" transform="matrix(1,0,0,1,-305.0000000000001,195) translate(16.5625 90.3125)"/><path d="M-226.53 453.86l.05.53.1.38.14.36.2.34.26.3.3.25.34.2.36.16.4.08.52.04h176.03v6.96h-176.3l-1.35-.1-1.45-.36-1.38-.57-1.28-.78-1.13-.96-.97-1.12-.78-1.27-.57-1.37-.35-1.45-.1-1.34V377h6.94zm1023.03 2.66v6.96H167v-6.96z" stroke="#1071e5" stroke-width=".05" fill="#1071e5"/><path d="M796.48 475h-6.96v-30h6.96z" stroke="#1071e5" stroke-width=".05" fill="#1071e5"/><path d="M-222.5 373.5h-15l7.5-13z" fill="#1071e5"/><path d="M-216.48 376.96h-27.04l13.52-23.4zm-15-6.94h2.96l-1.48-2.57z" stroke="#1071e5" stroke-width=".05" fill="#1071e5"/><use xlink:href="#h" transform="matrix(1,0,0,1,-47.827594103632805,435.80078125) translate(0 38.75)"/><path d="M730 1226a6 6 0 0 1 6-6h288a6 6 0 0 1 6 6v148a6 6 0 0 1-6 6H736a6 6 0 0 1-6-6z" stroke="#1071e5" stroke-width="7" fill="#cfe4ff"/><use xlink:href="#i" transform="matrix(1,0,0,1,735,1225) translate(16.708984375 90.3125)"/><path d="M200 666a6 6 0 0 1 6-6h148a6 6 0 0 1 6 6v148a6 6 0 0 1-6 6H206a6 6 0 0 1-6-6z" stroke="#1071e5" stroke-width="7" fill="#cfe4ff"/><use xlink:href="#j" transform="matrix(1,0,0,1,205,665) translate(26.083984375 90.3125)"/><path d="M-143.52 743.48h-55.34l-.53.04-.38.1-.36.14-.34.2-.3.26-.25.3-.2.34-.16.36-.08.4-.05.52v38.72h-6.94v-39l.1-1.34.35-1.45.57-1.38.78-1.28.96-1.13 1.12-.97 1.27-.78 1.37-.57 1.45-.35 1.34-.1h55.62zm340.02 0H66.67v-6.96H196.5z" stroke="#1071e5" stroke-width=".05" fill="#1071e5"/><path d="M196.47 755h-6.94v-30h6.94z" stroke="#1071e5" stroke-width=".05" fill="#1071e5"/><path d="M-205 801.35l-7.5-13h15z" fill="#1071e5"/><path d="M-205 808.3l-13.52-23.42h27.04zm-1.48-16.47l1.48 2.57 1.48-2.57z" stroke="#1071e5" stroke-width=".05" fill="#1071e5"/><use xlink:href="#k" transform="matrix(1,0,0,1,-143.52133779904045,715.80078125) translate(0 38.75)"/><path d="M-300 817.85a6 6 0 0 1 6-6h178a6 6 0 0 1 6 6v148a6 6 0 0 1-6 6h-178a6 6 0 0 1-6-6z" stroke="#1071e5" stroke-width="7" fill="#cfe4ff"/><use xlink:href="#l" transform="matrix(1,0,0,1,-295,816.8473630980807) translate(2.802734375 90.3125)"/><path d="M103.47 1234.24h-6.94v-238.5h6.94zm-8-345.76l1.46.35 1.38.57 1.28.77 1.13.97.97 1.13.78 1.27.57 1.38.35 1.44.1 1.35v49.64h-6.94v-49.36l-.05-.53-.1-.38-.14-.36-.2-.33-.26-.3-.3-.26-.34-.2-.36-.14-.4-.1-.52-.04H-106.5v-6.95H94.14z" stroke="#1071e5" stroke-width=".05" fill="#1071e5"/><path d="M-99.53 906.85h-6.94v-30h6.94z" stroke="#1071e5" stroke-width=".05" fill="#1071e5"/><path d="M100 1250.73l-7.5-13h15z" fill="#1071e5"/><path d="M100 1257.68l-13.52-23.4h27.04zm-1.48-16.46l1.48 2.56 1.48-2.56z" stroke="#1071e5" stroke-width=".05" fill="#1071e5"/><use xlink:href="#m" transform="matrix(1,0,0,1,31.669921875,947.3402504984006) translate(0 38.75)"/><path d="M20 1267.23a6 6 0 0 1 6-6h148a6 6 0 0 1 6 6v148a6 6 0 0 1-6 6H26a6 6 0 0 1-6-6z" stroke="#1071e5" stroke-width="7" fill="#cfe4ff"/><use xlink:href="#n" transform="matrix(1,0,0,1,25,1266.2315753987205) translate(13.642578125 90.3125)"/><path d="M283.48 1335.37l-.1 1.35-.36 1.44-.57 1.38-.78 1.27-.96 1.14-1.12.97-1.27.78-1.37.57-1.45.35-1.34.1H183.5v-6.94h90.36l.53-.05.38-.08.36-.15.34-.2.3-.26.25-.3.2-.33.16-.36.08-.38.04-.52V1080.4h6.96zm0-303.35h-6.96V847h6.96z" stroke="#1071e5" stroke-width=".05" fill="#1071e5"/><path d="M190.47 1356.23h-6.94v-30h6.94z" stroke="#1071e5" stroke-width=".05" fill="#1071e5"/><path d="M287.5 843.5h-15l7.5-13z" fill="#1071e5"/><path d="M293.52 846.97h-27.04L280 823.55zm-15-6.96h2.96l-1.48-2.55z" stroke="#1071e5" stroke-width=".05" fill="#1071e5"/><use xlink:href="#h" transform="matrix(1,0,0,1,172.587890625,1032.0170313759763) translate(0 38.75)"/><path d="M623.48 387.64l-.1 1.34-.36 1.45-.57 1.38-.78 1.28-.96 1.13-1.12.97-1.27.78-1.37.57-1.45.35-1.34.1H365.86l-1.34-.1-1.45-.35-1.38-.57-1.28-.78-1.13-.96-.97-1.12-.78-1.27-.57-1.37-.35-1.45-.1-1.34V377h6.95v10.36l.04.53.1.38.14.36.2.34.26.3.3.25.34.2.36.16.4.08.52.04h247.72l.53-.04.38-.1.36-.14.34-.2.3-.26.25-.3.2-.34.16-.36.08-.4.04-.52V245.5h6.96zM796.5-176.52H626.14l-.53.04-.38.1-.36.14-.34.2-.3.26-.25.3-.2.34-.16.36-.08.4-.04.52V197.1h-6.96v-371.24l.1-1.34.36-1.45.57-1.38.78-1.28.96-1.13 1.12-.97 1.27-.78 1.37-.57 1.45-.35 1.34-.1H796.5z" stroke="#1071e5" stroke-width=".05" fill="#1071e5"/><path d="M796.48-165h-6.96v-30h6.96z" stroke="#1071e5" stroke-width=".05" fill="#1071e5"/><path d="M367.5 373.5h-15l7.5-13z" fill="#1071e5"/><path d="M373.52 376.96h-27.04l13.52-23.4zm-15-6.94h2.96l-1.48-2.57z" stroke="#1071e5" stroke-width=".05" fill="#1071e5"/><use xlink:href="#h" transform="matrix(1,0,0,1,512.587890625,197.10419458171657) translate(0 38.75)"/><path d="M-1000 196a6 6 0 0 1 6-6h148a6 6 0 0 1 6 6v148a6 6 0 0 1-6 6h-148a6 6 0 0 1-6-6z" stroke="#1071e5" stroke-width="7" fill="#cfe4ff"/><use xlink:href="#e" transform="matrix(1,0,0,1,-995,195) translate(7.1484375 62.1875)"/><use xlink:href="#o" transform="matrix(1,0,0,1,-995,195) translate(30.673828125 120.265625)"/><path d="M-715.96 273.48H-836.5v-6.96h120.54zm378.97 0h-97.04v-6.96H-337z" stroke="#1071e5" stroke-width=".05" fill="#1071e5"/><path d="M-829.52 285h-6.96v-30h6.96z" stroke="#1071e5" stroke-width=".05" fill="#1071e5"/><path d="M-320.5 270l-13 7.5v-15z" fill="#1071e5"/><path d="M-313.55 270l-23.4 13.52v-27.04zm-16.46 1.48l2.55-1.48-2.56-1.48z" stroke="#1071e5" stroke-width=".05" fill="#1071e5"/><use xlink:href="#p" transform="matrix(1,0,0,1,-715.95703125,245.80078125) translate(0 38.75)"/><path d="M-36.53 273.48H-146.5v-6.96h109.97zm289.54 0h-86.47v-6.96H253z" stroke="#1071e5" stroke-width=".05" fill="#1071e5"/><path d="M-139.53 285h-6.94v-30h6.94z" stroke="#1071e5" stroke-width=".05" fill="#1071e5"/><path d="M269.5 270l-13 7.5v-15z" fill="#1071e5"/><path d="M276.45 270l-23.4 13.52-.02-27.04zM260 271.48l2.55-1.48-2.56-1.48z" stroke="#1071e5" stroke-width=".05" fill="#1071e5"/><use xlink:href="#q" transform="matrix(1,0,0,1,-36.53320312500006,245.80078125) translate(0 38.75)"/><path d="M-252.02 93.47h-661.84l-.53.05-.38.1-.36.14-.34.2-.3.26-.25.3-.2.34-.16.36-.08.4-.04.52v90.36h-6.96V95.86l.1-1.34.36-1.45.57-1.38.78-1.28.96-1.13 1.12-.97 1.27-.78 1.37-.57 1.45-.35 1.34-.1h662.12zm607.5-6.84l1.45.35 1.38.57 1.28.78 1.13.96.97 1.12.78 1.27.57 1.37.35 1.45.1 1.34V163h-6.95V96.15l-.04-.53-.1-.38-.14-.36-.2-.34-.26-.3-.3-.25-.34-.2-.36-.16-.4-.08-.52-.05h-469.22v-6.94h469.5z" stroke="#1071e5" stroke-width=".05" fill="#1071e5"/><path d="M-905 186.47h-30v-6.94h30z" stroke="#1071e5" stroke-width=".05" fill="#1071e5"/><path d="M360 179.5l-7.5-13h15z" fill="#1071e5"/><path d="M360 186.45l-13.52-23.4 27.04-.02zM358.52 170l1.48 2.55 1.48-2.56z" stroke="#1071e5" stroke-width=".05" fill="#1071e5"/><use xlink:href="#m" transform="matrix(1,0,0,1,-252.01590194783273,65.80078125) translate(0 38.75)"/><path d="M-865.47 577.36l.04.53.1.38.14.36.22.34.26.3.3.25.33.2.38.16.38.08.53.04h616.65V587h-616.93l-1.35-.1-1.45-.36-1.37-.57-1.27-.78-1.13-.96-.97-1.12-.78-1.27-.57-1.37-.35-1.45-.1-1.34V353.5h6.95zm1748.94.28l-.1 1.34-.35 1.45-.57 1.38-.78 1.28-.96 1.13-1.12.97-1.27.78-1.37.57-1.45.35-1.34.1H67.2v-6.95h806.66l.53-.04.38-.1.36-.14.34-.2.3-.26.25-.3.2-.34.16-.36.08-.4.04-.52V567h6.96z" stroke="#1071e5" stroke-width=".05" fill="#1071e5"/><path d="M-853.95 360.48h-30v-6.96h30z" stroke="#1071e5" stroke-width=".05" fill="#1071e5"/><path d="M887.5 563.5h-15l7.5-13z" fill="#1071e5"/><path d="M893.52 566.97h-27.04L880 543.55zm-15-6.96h2.96l-1.48-2.55z" stroke="#1071e5" stroke-width=".05" fill="#1071e5"/><use xlink:href="#r" transform="matrix(1,0,0,1,-246.15268523960674,559.3007312500008) translate(0 38.75)"/><path d="M1293.47 1294.14l-.1 1.34-.35 1.45-.57 1.38-.78 1.28-.96 1.13-1.12.97-1.27.78-1.37.57-1.45.35-1.34.1H1057v-6.94h226.86l.53-.05.38-.1.36-.14.34-.2.3-.26.25-.3.2-.34.16-.36.08-.4.05-.52V869.2h6.94zm-8-837.5l1.46.34 1.38.57 1.28.78 1.13.96.97 1.12.78 1.27.57 1.37.35 1.45.1 1.34V820.8h-6.94V466.14l-.05-.53-.1-.38-.14-.36-.2-.34-.26-.3-.3-.25-.34-.2-.36-.16-.4-.08-.52-.04H963.5v-6.96h320.64z" stroke="#1071e5" stroke-width=".05" fill="#1071e5"/><path d="M970.48 475h-6.96v-30h6.96z" stroke="#1071e5" stroke-width=".05" fill="#1071e5"/><path d="M1053.5 1307.5l-13-7.5 13-7.5z" fill="#1071e5"/><path d="M1056.96 1313.52l-23.4-13.52 23.4-13.52zm-9.5-13.52l2.56 1.48v-2.96z" stroke="#1071e5" stroke-width=".05" fill="#1071e5"/><use xlink:href="#s" transform="matrix(1,0,0,1,1024.98046875,820.80078125) translate(0 38.75)"/><path d="M883.48 1216.5h-6.96V764.2h6.96zm-496.5-473.02v-6.96h287.38v6.96z" stroke="#1071e5" stroke-width=".05" fill="#1071e5"/><path d="M895 1216.47h-30v-6.94h30z" stroke="#1071e5" stroke-width=".05" fill="#1071e5"/><path d="M383.5 747.5l-13-7.5 13-7.5z" fill="#1071e5"/><path d="M386.96 753.52L363.56 740l23.4-13.52zm-9.5-13.52l2.56 1.48v-2.96z" stroke="#1071e5" stroke-width=".05" fill="#1071e5"/><use xlink:href="#t" transform="matrix(1,0,0,1,674.3554687500002,715.80078125) translate(0 38.75)"/><path d="M-916.52 858.3l.04.52.1.38.14.37.2.33.26.3.3.26.34.2.36.16.4.1.52.03h108.2v6.95h-108.48l-1.34-.1-1.45-.35-1.38-.57-1.28-.78-1.13-.97-.97-1.13-.78-1.27-.57-1.37-.35-1.45-.1-1.34V377h6.95zm613.02 2.65v6.95h-184.45v-6.95z" stroke="#1071e5" stroke-width=".05" fill="#1071e5"/><path d="M-303.52 879.42h-6.96v-30h6.96z" stroke="#1071e5" stroke-width=".05" fill="#1071e5"/><path d="M-912.5 373.5h-15l7.5-13z" fill="#1071e5"/><path d="M-906.48 376.96h-27.04l13.52-23.4zm-15-6.94h2.96l-1.48-2.57z" stroke="#1071e5" stroke-width=".05" fill="#1071e5"/><use xlink:href="#u" transform="matrix(1,0,0,1,-805.6605163691054,840.2252555564157) translate(0 38.75)"/><path d="M478.98-23.37l1.45.35 1.38.57 1.27.78 1.14.96.97 1.12.78 1.27.57 1.37.35 1.45.1 1.34v289.88l-.1 1.34-.35 1.45-.57 1.38-.78 1.27-.96 1.14-1.13.97-1.26.78-1.37.57-1.45.35-1.34.1H467v-6.95h10.36l.53-.04.38-.1.36-.14.34-.2.3-.26.25-.3.2-.34.16-.37.08-.38.04-.54V-13.86l-.04-.53-.1-.38-.14-.36-.2-.34-.26-.3-.3-.25-.34-.2-.36-.16-.4-.08-.52-.04H-85.86v-6.96h563.5zm-883.12 6.85h-633.22l-.53.04-.38.1-.36.14-.34.2-.3.26-.25.3-.2.34-.16.36-.08.4-.05.52v219.32l.05.53.1.38.14.36.2.34.26.3.3.25.34.2.36.16.4.08.52.04h33.86v6.95h-34.14l-1.34-.1-1.45-.35-1.38-.57-1.28-.78-1.13-.96-.97-1.13-.78-1.26-.57-1.37-.35-1.45-.1-1.34V-14.14l.1-1.34.35-1.45.57-1.38.78-1.28.96-1.13 1.12-.97 1.27-.78 1.37-.57 1.45-.35 1.34-.1h633.5z" stroke="#1071e5" stroke-width=".05" fill="#1071e5"/><path d="M-1003.52 226.6h-6.96v-30h6.96z" stroke="#1071e5" stroke-width=".05" fill="#1071e5"/><path d="M463.5 289.1l-13-7.5 13-7.5z" fill="#1071e5"/><path d="M466.96 295.12l-23.4-13.52 23.4-13.52zm-9.5-13.52l2.56 1.48v-2.96z" stroke="#1071e5" stroke-width=".05" fill="#1071e5"/><use xlink:href="#v" transform="matrix(1,0,0,1,-404.14069114328834,-44.19921875) translate(0 38.75)"/><path d="M-1433.03 273.48H-1713v-6.96h279.97zm429.53 0h-184.57v-6.96h184.57z" stroke="#1071e5" stroke-width=".05" fill="#1071e5"/><path d="M-1003.52 285h-6.96v-30h6.96z" stroke="#1071e5" stroke-width=".05" fill="#1071e5"/><path d="M-1716.5 277.5l-13-7.5 13-7.5z" fill="#1071e5"/><path d="M-1713.04 283.52l-23.4-13.52 23.4-13.52zm-9.5-13.52l2.56 1.48v-2.96z" stroke="#1071e5" stroke-width=".05" fill="#1071e5"/><use xlink:href="#w" transform="matrix(1,0,0,1,-1433.029244737725,245.80078125) translate(0 38.75)"/><path d="M-1940 186a6 6 0 0 1 6-6h188a6 6 0 0 1 6 6v168a6 6 0 0 1-6 6h-188a6 6 0 0 1-6-6z" stroke="#1071e5" stroke-width="7" fill="#cfe4ff"/><use xlink:href="#x" transform="matrix(1,0,0,1,-1935,185) translate(-0.966796875 99.55078125)"/><path d="M-1836.53 936.1l.05.52.1.38.14.37.2.33.26.3.3.26.34.2.36.16.4.1.52.03h643.57v6.95h-643.84l-1.34-.1-1.45-.35-1.38-.57-1.28-.78-1.13-.97-.97-1.13-.78-1.27-.57-1.37-.35-1.45-.1-1.34V387h6.94zm1533.03 2.65v6.95h-651.32v-6.95z" stroke="#1071e5" stroke-width=".05" fill="#1071e5"/><path d="M-303.52 957.23h-6.96v-30h6.96z" stroke="#1071e5" stroke-width=".05" fill="#1071e5"/><path d="M-1832.5 383.5h-15l7.5-13z" fill="#1071e5"/><path d="M-1826.48 386.96h-27.04l13.52-23.4zm-15-6.94h2.96l-1.48-2.57z" stroke="#1071e5" stroke-width=".05" fill="#1071e5"/><use xlink:href="#y" transform="matrix(1,0,0,1,-1190.2896058381577,918.027287524794) translate(0 38.75)"/><path d="M-880 1106a6 6 0 0 1 6-6h148a6 6 0 0 1 6 6v148a6 6 0 0 1-6 6h-148a6 6 0 0 1-6-6z" stroke="#1071e5" stroke-width="7" fill="#cfe4ff"/><use xlink:href="#z" transform="matrix(1,0,0,1,-875,1105) translate(38.486328125 66.875)"/><use xlink:href="#A" transform="matrix(1,0,0,1,-875,1105) translate(16.513671875 115.2734375)"/><path d="M-607.15 1183.47H-716.5v-6.94h109.35zm405.63-9.33l-.1 1.34-.36 1.45-.57 1.38-.78 1.28-.96 1.13-1.12.97-1.27.78-1.37.57-1.45.35-1.34.1h-186.92v-6.94h186.64l.53-.05.38-.1.36-.14.34-.2.3-.26.25-.3.2-.34.16-.36.08-.4.05-.52V998.84h6.94z" stroke="#1071e5" stroke-width=".05" fill="#1071e5"/><path d="M-709.52 1195h-6.96v-30h6.96z" stroke="#1071e5" stroke-width=".05" fill="#1071e5"/><path d="M-197.5 995.34h-15l7.5-13z" fill="#1071e5"/><path d="M-191.48 998.8h-27.04l13.52-23.4zm-15-6.94h2.96l-1.48-2.56z" stroke="#1071e5" stroke-width=".05" fill="#1071e5"/><use xlink:href="#B" transform="matrix(1,0,0,1,-607.1511826370904,1155.80078125) translate(0 38.75)"/><path d="M-1196.53 1173.86l.05.53.1.38.14.36.2.34.26.3.3.25.34.2.36.16.4.08.52.05h310.36v6.94h-310.64l-1.34-.1-1.45-.35-1.38-.57-1.28-.78-1.13-.96-.97-1.12-.78-1.27-.57-1.37-.35-1.45-.1-1.34V553.3h6.94zM-1027 327.33h-166.86l-.53.05-.38.1-.36.14-.34.2-.3.26-.25.3-.2.34-.16.36-.08.4-.05.52v174.9h-6.94V329.72l.1-1.35.35-1.44.57-1.38.78-1.27.96-1.13 1.12-.96 1.27-.8 1.37-.56 1.45-.35 1.34-.12H-1027z" stroke="#1071e5" stroke-width=".05" fill="#1071e5"/><path d="M-883.52 1195h-6.96v-30h6.96z" stroke="#1071e5" stroke-width=".05" fill="#1071e5"/><path d="M-1010.5 323.86l-13 7.5v-15z" fill="#1071e5"/><path d="M-1003.55 323.86l-23.4 13.52v-27.04zm-16.47 1.48l2.57-1.48-2.56-1.48z" stroke="#1071e5" stroke-width=".05" fill="#1071e5"/><g><use xlink:href="#C" transform="matrix(1,0,0,1,-1371.787109375,504.9042934462742) translate(0 38.75)"/></g><defs><path d="M628 22C291 22 81-210 81-554c0-346 210-578 547-578 336 0 547 232 547 578 0 344-211 576-547 576zm0-236c160 0 242-146 242-341 0-197-82-341-242-341S387-753 387-555c0 195 81 341 241 341" id="D"/><path d="M128 0v-1118h290v195h12c54-169 184-238 367-200v268c-27-8-86-15-130-15-138 0-239 95-239 234V0H128" id="E"/><path d="M625 442c-280 0-454-114-503-274l258-72c28 63 97 128 243 128 153 0 246-69 246-216v-206h-23C805-108 717-16 536-16 284-16 81-191 81-561c0-378 208-571 456-571 188 0 280 113 321 202h13v-188h295V-9c0 303-226 451-541 451zm5-686c153 0 240-119 240-319 0-198-86-329-240-329-158 0-241 137-241 329 0 195 85 319 241 319" id="F"/><path d="M440 22C227 22 68-92 68-313c0-250 202-322 422-343 195-21 271-24 271-105 0-95-63-149-175-149-116 0-187 57-211 129l-275-46c57-194 237-305 487-305 240 0 474 108 474 379V0H777v-155h-10C713-51 605 22 440 22zm85-211c140 0 238-93 238-211v-121c-37 26-156 42-222 51-111 16-185 59-185 149 0 87 70 132 169 132" id="G"/><path d="M428-647V0H128v-1118h283l4 231c63-156 176-245 348-245 232 0 384 159 384 421V0H847v-659c0-139-76-222-202-222-128 0-217 86-217 234" id="H"/><g id="a"><use transform="matrix(0.01953125,0,0,0.01953125,0,0)" xlink:href="#D"/><use transform="matrix(0.01953125,0,0,0.01953125,24.53125,0)" xlink:href="#E"/><use transform="matrix(0.01953125,0,0,0.01953125,39.84375,0)" xlink:href="#F"/><use transform="matrix(0.01953125,0,0,0.01953125,65.1171875,0)" xlink:href="#G"/><use transform="matrix(0.01953125,0,0,0.01953125,88.33984375,0)" xlink:href="#H"/></g><path d="M128 0v-1118h278l12 217c60-163 185-234 319-234 143 0 236 81 288 251 63-172 205-251 359-251 205 0 357 138 357 381V0h-301v-697c0-126-76-187-177-187-114 0-184 79-184 196V0H789v-705c0-109-72-179-174-179-106 0-187 74-187 208V0H128" id="I"/><path d="M428-1490V0H128v-1490h300" id="J"/><g id="b"><use transform="matrix(0.01953125,0,0,0.01953125,0,0)" xlink:href="#H"/><use transform="matrix(0.01953125,0,0,0.01953125,24.90234375,0)" xlink:href="#D"/><use transform="matrix(0.01953125,0,0,0.01953125,49.43359375,0)" xlink:href="#E"/><use transform="matrix(0.01953125,0,0,0.01953125,66.015625,0)" xlink:href="#I"/><use transform="matrix(0.01953125,0,0,0.01953125,102.51953125,0)" xlink:href="#G"/><use transform="matrix(0.01953125,0,0,0.01953125,125.7421875,0)" xlink:href="#J"/></g><path d="M628 22C291 22 81-210 81-554c0-346 210-578 547-578 265 0 455 142 497 372l-279 52c-25-116-99-188-215-188-160 0-244 139-244 341 0 200 84 341 244 341 116 0 193-74 217-195l279 51C1085-123 896 22 628 22" id="K"/><path d="M633 22C291 22 81-200 81-553c0-345 210-579 537-579 292 0 525 185 525 567v84H378c7 183 109 277 260 277 105 0 184-46 216-132l272 51C1071-99 893 22 633 22zM380-669h474c-15-146-94-237-233-237-143 0-229 99-241 237" id="L"/><g id="c"><use transform="matrix(0.01953125,0,0,0.01953125,0,0)" xlink:href="#K"/><use transform="matrix(0.01953125,0,0,0.01953125,23.53515625,0)" xlink:href="#L"/><use transform="matrix(0.01953125,0,0,0.01953125,47.36328125,0)" xlink:href="#J"/><use transform="matrix(0.01953125,0,0,0.01953125,58.203125,0)" xlink:href="#J"/></g><path fill="#333" d="M683-1118v229H474v562c0 71 29 104 102 104 23 0 73-7 95-13l43 225C647 9 580 16 520 16 296 16 174-96 174-301v-588H20v-229h154v-266h300v266h209" id="M"/><path fill="#333" d="M128 0v-1118h290v195h12c54-169 184-238 367-200v268c-27-8-86-15-130-15-138 0-239 95-239 234V0H128" id="N"/><path fill="#333" d="M440 22C227 22 68-92 68-313c0-250 202-322 422-343 195-21 271-24 271-105 0-95-63-149-175-149-116 0-187 57-211 129l-275-46c57-194 237-305 487-305 240 0 474 108 474 379V0H777v-155h-10C713-51 605 22 440 22zm85-211c140 0 238-93 238-211v-121c-37 26-156 42-222 51-111 16-185 59-185 149 0 87 70 132 169 132" id="O"/><path fill="#333" d="M428-647V0H128v-1118h283l4 231c63-156 176-245 348-245 232 0 384 159 384 421V0H847v-659c0-139-76-222-202-222-128 0-217 86-217 234" id="P"/><path fill="#333" d="M572 22C302 22 117-98 78-306l279-48c29 105 101 156 224 156 114 0 185-48 185-115 0-118-228-130-337-155-215-49-322-150-322-317 0-215 187-347 470-347 265 0 424 116 466 298l-266 47c-24-76-87-130-196-130-98 0-174 46-174 113 0 56 38 95 144 117l201 40c216 44 320 143 320 302 0 220-207 367-500 367" id="Q"/><path fill="#333" d="M750-1118v229H516V0H217v-889H20v-229h197v-86c0-238 156-356 363-356 94 0 178 20 215 31l-54 226c-25-7-61-15-100-15-123-3-131 84-125 200h234" id="R"/><path fill="#333" d="M628 22C291 22 81-210 81-554c0-346 210-578 547-578 336 0 547 232 547 578 0 344-211 576-547 576zm0-236c160 0 242-146 242-341 0-197-82-341-242-341S387-753 387-555c0 195 81 341 241 341" id="S"/><path fill="#333" d="M128 0v-1118h278l12 217c60-163 185-234 319-234 143 0 236 81 288 251 63-172 205-251 359-251 205 0 357 138 357 381V0h-301v-697c0-126-76-187-177-187-114 0-184 79-184 196V0H789v-705c0-109-72-179-174-179-106 0-187 74-187 208V0H128" id="T"/><path fill="#333" d="M975 0v231H0V0h975" id="U"/><g id="d"><use transform="matrix(0.01953125,0,0,0.01953125,0,0)" xlink:href="#M"/><use transform="matrix(0.01953125,0,0,0.01953125,14.6484375,0)" xlink:href="#N"/><use transform="matrix(0.01953125,0,0,0.01953125,30.390625,0)" xlink:href="#O"/><use transform="matrix(0.01953125,0,0,0.01953125,53.61328125,0)" xlink:href="#P"/><use transform="matrix(0.01953125,0,0,0.01953125,78.515625,0)" xlink:href="#Q"/><use transform="matrix(0.01953125,0,0,0.01953125,100.91796875,0)" xlink:href="#R"/><use transform="matrix(0.01953125,0,0,0.01953125,115.9765625,0)" xlink:href="#S"/><use transform="matrix(0.01953125,0,0,0.01953125,140.5078125,0)" xlink:href="#N"/><use transform="matrix(0.01953125,0,0,0.01953125,157.08984375,0)" xlink:href="#T"/><use transform="matrix(0.01953125,0,0,0.01953125,193.59375,0)" xlink:href="#Q"/><use transform="matrix(0.01953125,0,0,0.01953125,215.99609375,0)" xlink:href="#U"/><use transform="matrix(0.01953125,0,0,0.01953125,235.0390625,0)" xlink:href="#M"/><use transform="matrix(0.01953125,0,0,0.01953125,249.296875,0)" xlink:href="#S"/></g><g id="e"><use transform="matrix(0.01953125,0,0,0.01953125,0,0)" xlink:href="#K"/><use transform="matrix(0.01953125,0,0,0.01953125,23.92578125,0)" xlink:href="#G"/><use transform="matrix(0.01953125,0,0,0.01953125,47.1484375,0)" xlink:href="#H"/><use transform="matrix(0.01953125,0,0,0.01953125,72.05078125,0)" xlink:href="#K"/><use transform="matrix(0.01953125,0,0,0.01953125,95.5859375,0)" xlink:href="#L"/><use transform="matrix(0.01953125,0,0,0.01953125,119.4140625,0)" xlink:href="#E"/></g><g id="f"><use transform="matrix(0.01953125,0,0,0.01953125,0,0)" xlink:href="#K"/><use transform="matrix(0.01953125,0,0,0.01953125,23.53515625,0)" xlink:href="#L"/><use transform="matrix(0.01953125,0,0,0.01953125,47.36328125,0)" xlink:href="#J"/><use transform="matrix(0.01953125,0,0,0.01953125,58.203125,0)" xlink:href="#J"/></g><path d="M683-1118v229H474v562c0 71 29 104 102 104 23 0 73-7 95-13l43 225C647 9 580 16 520 16 296 16 174-96 174-301v-588H20v-229h154v-266h300v266h209" id="V"/><path d="M513 14c-232 0-385-159-385-421v-711h300v659c0 139 76 222 202 222 127 0 217-86 217-234v-647h301V0H864l-4-232C797-74 683 14 513 14" id="W"/><g id="g"><use transform="matrix(0.01953125,0,0,0.01953125,0,0)" xlink:href="#V"/><use transform="matrix(0.01953125,0,0,0.01953125,14.6484375,0)" xlink:href="#W"/><use transform="matrix(0.01953125,0,0,0.01953125,39.55078125,0)" xlink:href="#I"/><use transform="matrix(0.01953125,0,0,0.01953125,76.0546875,0)" xlink:href="#D"/><use transform="matrix(0.01953125,0,0,0.01953125,100.5859375,0)" xlink:href="#E"/></g><path fill="#333" d="M754 19C571 19 479-89 437-179h-14V0H128v-1490h300v560h9c41-89 129-202 319-202 248 0 453 193 453 575 0 372-197 576-455 576zm-92-241c156 0 240-139 240-336 0-196-83-334-240-334-154 0-241 131-241 334 0 202 88 336 241 336" id="X"/><path fill="#333" d="M633 22C291 22 81-200 81-553c0-345 210-579 537-579 292 0 525 185 525 567v84H378c7 183 109 277 260 277 105 0 184-46 216-132l272 51C1071-99 893 22 633 22zM380-669h474c-15-146-94-237-233-237-143 0-229 99-241 237" id="Y"/><path fill="#333" d="M428-1490V0H128v-1490h300" id="Z"/><path fill="#333" d="M625 442c-280 0-454-114-503-274l258-72c28 63 97 128 243 128 153 0 246-69 246-216v-206h-23C805-108 717-16 536-16 284-16 81-191 81-561c0-378 208-571 456-571 188 0 280 113 321 202h13v-188h295V-9c0 303-226 451-541 451zm5-686c153 0 240-119 240-319 0-198-86-329-240-329-158 0-241 137-241 329 0 195 85 319 241 319" id="aa"/><g id="h"><use transform="matrix(0.01953125,0,0,0.01953125,0,0)" xlink:href="#X"/><use transform="matrix(0.01953125,0,0,0.01953125,25.21484375,0)" xlink:href="#Y"/><use transform="matrix(0.01953125,0,0,0.01953125,49.04296875,0)" xlink:href="#Z"/><use transform="matrix(0.01953125,0,0,0.01953125,59.8828125,0)" xlink:href="#S"/><use transform="matrix(0.01953125,0,0,0.01953125,84.4140625,0)" xlink:href="#P"/><use transform="matrix(0.01953125,0,0,0.01953125,109.31640625,0)" xlink:href="#aa"/><use transform="matrix(0.01953125,0,0,0.01953125,134.58984375,0)" xlink:href="#Q"/><use transform="matrix(0.01953125,0,0,0.01953125,156.9921875,0)" xlink:href="#U"/><use transform="matrix(0.01953125,0,0,0.01953125,176.03515625,0)" xlink:href="#M"/><use transform="matrix(0.01953125,0,0,0.01953125,190.29296875,0)" xlink:href="#S"/></g><path d="M428-647V0H128v-1490h294v586c65-146 175-228 341-228 232 0 385 159 385 421V0H847v-659c0-139-76-222-202-222-128 0-217 86-217 234" id="ab"/><path d="M572 22C302 22 117-98 78-306l279-48c29 105 101 156 224 156 114 0 185-48 185-115 0-118-228-130-337-155-215-49-322-150-322-317 0-215 187-347 470-347 265 0 424 116 466 298l-266 47c-24-76-87-130-196-130-98 0-174 46-174 113 0 56 38 95 144 117l201 40c216 44 320 143 320 302 0 220-207 367-500 367" id="ac"/><g id="i"><use transform="matrix(0.01953125,0,0,0.01953125,0,0)" xlink:href="#K"/><use transform="matrix(0.01953125,0,0,0.01953125,23.53515625,0)" xlink:href="#ab"/><use transform="matrix(0.01953125,0,0,0.01953125,48.4375,0)" xlink:href="#E"/><use transform="matrix(0.01953125,0,0,0.01953125,63.75,0)" xlink:href="#D"/><use transform="matrix(0.01953125,0,0,0.01953125,88.28125,0)" xlink:href="#I"/><use transform="matrix(0.01953125,0,0,0.01953125,124.78515625,0)" xlink:href="#D"/><use transform="matrix(0.01953125,0,0,0.01953125,149.31640625,0)" xlink:href="#ac"/><use transform="matrix(0.01953125,0,0,0.01953125,171.71875,0)" xlink:href="#D"/><use transform="matrix(0.01953125,0,0,0.01953125,196.25,0)" xlink:href="#I"/><use transform="matrix(0.01953125,0,0,0.01953125,232.75390625,0)" xlink:href="#L"/></g><g id="j"><use transform="matrix(0.01953125,0,0,0.01953125,0,0)" xlink:href="#F"/><use transform="matrix(0.01953125,0,0,0.01953125,25.2734375,0)" xlink:href="#L"/><use transform="matrix(0.01953125,0,0,0.01953125,49.1015625,0)" xlink:href="#H"/><use transform="matrix(0.01953125,0,0,0.01953125,74.00390625,0)" xlink:href="#L"/></g><path fill="#333" d="M513 14c-232 0-385-159-385-421v-711h300v659c0 139 76 222 202 222 127 0 217-86 217-234v-647h301V0H864l-4-232C797-74 683 14 513 14" id="ad"/><path fill="#333" d="M537 19C279 19 81-185 81-557c0-382 206-575 454-575 190 0 278 113 318 202h10v-560h300V0H868v-179h-15C812-89 719 19 537 19zm92-241c153 0 240-134 240-336 0-203-86-334-240-334-158 0-240 138-240 334 0 197 84 336 240 336" id="ae"/><g id="k"><use transform="matrix(0.01953125,0,0,0.01953125,0,0)" xlink:href="#ad"/><use transform="matrix(0.01953125,0,0,0.01953125,24.90234375,0)" xlink:href="#P"/><use transform="matrix(0.01953125,0,0,0.01953125,49.8046875,0)" xlink:href="#ae"/><use transform="matrix(0.01953125,0,0,0.01953125,75.01953125,0)" xlink:href="#Y"/><use transform="matrix(0.01953125,0,0,0.01953125,98.84765625,0)" xlink:href="#N"/><use transform="matrix(0.01953125,0,0,0.01953125,114.16015625,0)" xlink:href="#aa"/><use transform="matrix(0.01953125,0,0,0.01953125,139.43359375,0)" xlink:href="#S"/><use transform="matrix(0.01953125,0,0,0.01953125,163.96484375,0)" xlink:href="#Y"/><use transform="matrix(0.01953125,0,0,0.01953125,187.79296875,0)" xlink:href="#Q"/></g><path d="M128 0v-1118h300V0H128zm150-1264c-91 0-165-68-165-154 0-85 74-154 165-154 90 0 165 69 165 154 0 86-75 154-165 154" id="af"/><g id="l"><use transform="matrix(0.01953125,0,0,0.01953125,0,0)" xlink:href="#I"/><use transform="matrix(0.01953125,0,0,0.01953125,36.50390625,0)" xlink:href="#W"/><use transform="matrix(0.01953125,0,0,0.01953125,61.40625,0)" xlink:href="#V"/><use transform="matrix(0.01953125,0,0,0.01953125,76.25,0)" xlink:href="#G"/><use transform="matrix(0.01953125,0,0,0.01953125,99.47265625,0)" xlink:href="#V"/><use transform="matrix(0.01953125,0,0,0.01953125,114.12109375,0)" xlink:href="#af"/><use transform="matrix(0.01953125,0,0,0.01953125,124.9609375,0)" xlink:href="#D"/><use transform="matrix(0.01953125,0,0,0.01953125,149.4921875,0)" xlink:href="#H"/></g><path fill="#333" d="M628 22C291 22 81-210 81-554c0-346 210-578 547-578 265 0 455 142 497 372l-279 52c-25-116-99-188-215-188-160 0-244 139-244 341 0 200 84 341 244 341 116 0 193-74 217-195l279 51C1085-123 896 22 628 22" id="ag"/><g id="m"><use transform="matrix(0.01953125,0,0,0.01953125,0,0)" xlink:href="#O"/><use transform="matrix(0.01953125,0,0,0.01953125,23.22265625,0)" xlink:href="#R"/><use transform="matrix(0.01953125,0,0,0.01953125,37.48046875,0)" xlink:href="#R"/><use transform="matrix(0.01953125,0,0,0.01953125,52.5390625,0)" xlink:href="#Y"/><use transform="matrix(0.01953125,0,0,0.01953125,76.3671875,0)" xlink:href="#ag"/><use transform="matrix(0.01953125,0,0,0.01953125,99.90234375,0)" xlink:href="#M"/><use transform="matrix(0.01953125,0,0,0.01953125,114.2578125,0)" xlink:href="#Q"/></g><path d="M537 19C279 19 81-185 81-557c0-382 206-575 454-575 190 0 278 113 318 202h10v-560h300V0H868v-179h-15C812-89 719 19 537 19zm92-241c153 0 240-134 240-336 0-203-86-334-240-334-158 0-240 138-240 334 0 197 84 336 240 336" id="ah"/><g id="n"><use transform="matrix(0.01953125,0,0,0.01953125,0,0)" xlink:href="#K"/><use transform="matrix(0.01953125,0,0,0.01953125,23.53515625,0)" xlink:href="#D"/><use transform="matrix(0.01953125,0,0,0.01953125,48.06640625,0)" xlink:href="#ah"/><use transform="matrix(0.01953125,0,0,0.01953125,73.28125,0)" xlink:href="#D"/><use transform="matrix(0.01953125,0,0,0.01953125,97.8125,0)" xlink:href="#H"/></g><path d="M120 396l69-226c123 42 245 23 254-107l8-60L31-1118h319c87 288 199 559 259 872 72-308 185-583 277-872h315L726 132c-68 181-186 294-410 294-79 0-153-13-196-30" id="ai"/><path d="M128 418v-1536h295v188h14c41-89 129-202 319-202 248 0 453 193 453 575 0 372-197 576-455 576-183 0-275-108-317-198h-9v597H128zm534-640c156 0 240-139 240-336 0-196-83-334-240-334-154 0-241 131-241 334 0 202 88 336 241 336" id="aj"/><g id="o"><use transform="matrix(0.01953125,0,0,0.01953125,0,0)" xlink:href="#V"/><use transform="matrix(0.01953125,0,0,0.01953125,15.52734375,0)" xlink:href="#ai"/><use transform="matrix(0.01953125,0,0,0.01953125,39.609375,0)" xlink:href="#aj"/><use transform="matrix(0.01953125,0,0,0.01953125,64.82421875,0)" xlink:href="#L"/></g><path fill="#333" d="M128 0v-1118h300V0H128zm150-1264c-91 0-165-68-165-154 0-85 74-154 165-154 90 0 165 69 165 154 0 86-75 154-165 154" id="ak"/><g id="p"><use transform="matrix(0.01953125,0,0,0.01953125,0,0)" xlink:href="#T"/><use transform="matrix(0.01953125,0,0,0.01953125,36.50390625,0)" xlink:href="#O"/><use transform="matrix(0.01953125,0,0,0.01953125,59.7265625,0)" xlink:href="#P"/><use transform="matrix(0.01953125,0,0,0.01953125,84.62890625,0)" xlink:href="#ak"/><use transform="matrix(0.01953125,0,0,0.01953125,95.46875,0)" xlink:href="#R"/><use transform="matrix(0.01953125,0,0,0.01953125,110.52734375,0)" xlink:href="#Y"/><use transform="matrix(0.01953125,0,0,0.01953125,134.35546875,0)" xlink:href="#Q"/><use transform="matrix(0.01953125,0,0,0.01953125,156.7578125,0)" xlink:href="#M"/><use transform="matrix(0.01953125,0,0,0.01953125,171.015625,0)" xlink:href="#Y"/><use transform="matrix(0.01953125,0,0,0.01953125,194.84375,0)" xlink:href="#Q"/><use transform="matrix(0.01953125,0,0,0.01953125,217.24609375,0)" xlink:href="#U"/><use transform="matrix(0.01953125,0,0,0.01953125,236.2890625,0)" xlink:href="#O"/><use transform="matrix(0.01953125,0,0,0.01953125,259.51171875,0)" xlink:href="#Q"/></g><path fill="#333" d="M440-1490V0H135v-1490h305" id="al"/><g id="q"><use transform="matrix(0.01953125,0,0,0.01953125,0,0)" xlink:href="#Z"/><use transform="matrix(0.01953125,0,0,0.01953125,10.83984375,0)" xlink:href="#S"/><use transform="matrix(0.01953125,0,0,0.01953125,35.37109375,0)" xlink:href="#ag"/><use transform="matrix(0.01953125,0,0,0.01953125,59.296875,0)" xlink:href="#O"/><use transform="matrix(0.01953125,0,0,0.01953125,82.51953125,0)" xlink:href="#M"/><use transform="matrix(0.01953125,0,0,0.01953125,96.77734375,0)" xlink:href="#Y"/><use transform="matrix(0.01953125,0,0,0.01953125,120.60546875,0)" xlink:href="#ae"/><use transform="matrix(0.01953125,0,0,0.01953125,146.54296875,0)" xlink:href="#U"/><use transform="matrix(0.01953125,0,0,0.01953125,166.93359375,0)" xlink:href="#al"/><use transform="matrix(0.01953125,0,0,0.01953125,178.1640625,0)" xlink:href="#P"/></g><path fill="#333" d="M428-647V0H128v-1490h294v586c65-146 175-228 341-228 232 0 385 159 385 421V0H847v-659c0-139-76-222-202-222-128 0-217 86-217 234" id="am"/><g id="r"><use transform="matrix(0.01953125,0,0,0.01953125,0,0)" xlink:href="#am"/><use transform="matrix(0.01953125,0,0,0.01953125,24.90234375,0)" xlink:href="#O"/><use transform="matrix(0.01953125,0,0,0.01953125,48.125,0)" xlink:href="#Q"/><use transform="matrix(0.01953125,0,0,0.01953125,70.52734375,0)" xlink:href="#U"/><use transform="matrix(0.01953125,0,0,0.01953125,89.5703125,0)" xlink:href="#ag"/><use transform="matrix(0.01953125,0,0,0.01953125,113.49609375,0)" xlink:href="#O"/><use transform="matrix(0.01953125,0,0,0.01953125,136.71875,0)" xlink:href="#P"/><use transform="matrix(0.01953125,0,0,0.01953125,161.62109375,0)" xlink:href="#ag"/><use transform="matrix(0.01953125,0,0,0.01953125,185.15625,0)" xlink:href="#Y"/><use transform="matrix(0.01953125,0,0,0.01953125,208.984375,0)" xlink:href="#N"/><use transform="matrix(0.01953125,0,0,0.01953125,225.2734375,0)" xlink:href="#U"/><use transform="matrix(0.01953125,0,0,0.01953125,244.31640625,0)" xlink:href="#ag"/><use transform="matrix(0.01953125,0,0,0.01953125,267.8515625,0)" xlink:href="#Y"/><use transform="matrix(0.01953125,0,0,0.01953125,291.6796875,0)" xlink:href="#Z"/><use transform="matrix(0.01953125,0,0,0.01953125,302.51953125,0)" xlink:href="#Z"/></g><g id="s"><use transform="matrix(0.01953125,0,0,0.01953125,0,0)" xlink:href="#am"/><use transform="matrix(0.01953125,0,0,0.01953125,24.90234375,0)" xlink:href="#O"/><use transform="matrix(0.01953125,0,0,0.01953125,48.125,0)" xlink:href="#Q"/><use transform="matrix(0.01953125,0,0,0.01953125,70.52734375,0)" xlink:href="#U"/><use transform="matrix(0.01953125,0,0,0.01953125,90.91796875,0)" xlink:href="#T"/><use transform="matrix(0.01953125,0,0,0.01953125,127.421875,0)" xlink:href="#ad"/><use transform="matrix(0.01953125,0,0,0.01953125,152.32421875,0)" xlink:href="#M"/><use transform="matrix(0.01953125,0,0,0.01953125,167.16796875,0)" xlink:href="#O"/><use transform="matrix(0.01953125,0,0,0.01953125,190.390625,0)" xlink:href="#M"/><use transform="matrix(0.01953125,0,0,0.01953125,204.6484375,0)" xlink:href="#Y"/><use transform="matrix(0.01953125,0,0,0.01953125,228.4765625,0)" xlink:href="#ae"/><use transform="matrix(0.01953125,0,0,0.01953125,254.4140625,0)" xlink:href="#U"/><use transform="matrix(0.01953125,0,0,0.01953125,273.45703125,0)" xlink:href="#ag"/><use transform="matrix(0.01953125,0,0,0.01953125,296.9921875,0)" xlink:href="#am"/><use transform="matrix(0.01953125,0,0,0.01953125,321.89453125,0)" xlink:href="#N"/><use transform="matrix(0.01953125,0,0,0.01953125,337.20703125,0)" xlink:href="#S"/><use transform="matrix(0.01953125,0,0,0.01953125,361.73828125,0)" xlink:href="#T"/><use transform="matrix(0.01953125,0,0,0.01953125,398.2421875,0)" xlink:href="#S"/><use transform="matrix(0.01953125,0,0,0.01953125,422.7734375,0)" xlink:href="#Q"/><use transform="matrix(0.01953125,0,0,0.01953125,445.17578125,0)" xlink:href="#S"/><use transform="matrix(0.01953125,0,0,0.01953125,469.70703125,0)" xlink:href="#T"/><use transform="matrix(0.01953125,0,0,0.01953125,506.2109375,0)" xlink:href="#Y"/></g><g id="t"><use transform="matrix(0.01953125,0,0,0.01953125,0,0)" xlink:href="#am"/><use transform="matrix(0.01953125,0,0,0.01953125,24.90234375,0)" xlink:href="#O"/><use transform="matrix(0.01953125,0,0,0.01953125,48.125,0)" xlink:href="#Q"/><use transform="matrix(0.01953125,0,0,0.01953125,70.52734375,0)" xlink:href="#U"/><use transform="matrix(0.01953125,0,0,0.01953125,90.91796875,0)" xlink:href="#T"/><use transform="matrix(0.01953125,0,0,0.01953125,127.421875,0)" xlink:href="#ad"/><use transform="matrix(0.01953125,0,0,0.01953125,152.32421875,0)" xlink:href="#M"/><use transform="matrix(0.01953125,0,0,0.01953125,167.16796875,0)" xlink:href="#O"/><use transform="matrix(0.01953125,0,0,0.01953125,190.390625,0)" xlink:href="#M"/><use transform="matrix(0.01953125,0,0,0.01953125,204.6484375,0)" xlink:href="#Y"/><use transform="matrix(0.01953125,0,0,0.01953125,228.4765625,0)" xlink:href="#ae"/><use transform="matrix(0.01953125,0,0,0.01953125,254.4140625,0)" xlink:href="#U"/><use transform="matrix(0.01953125,0,0,0.01953125,273.45703125,0)" xlink:href="#aa"/><use transform="matrix(0.01953125,0,0,0.01953125,298.73046875,0)" xlink:href="#Y"/><use transform="matrix(0.01953125,0,0,0.01953125,322.55859375,0)" xlink:href="#P"/><use transform="matrix(0.01953125,0,0,0.01953125,347.4609375,0)" xlink:href="#Y"/></g><path fill="#333" d="M361 0L31-1118h315c68 295 127 523 188 845 63-317 128-551 199-845h276c71 296 131 525 196 846 57-321 119-552 186-846h319L1378 0h-305c-73-261-148-486-204-771C813-484 740-261 666 0H361" id="an"/><g id="u"><use transform="matrix(0.01953125,0,0,0.01953125,0,0)" xlink:href="#O"/><use transform="matrix(0.01953125,0,0,0.01953125,23.22265625,0)" xlink:href="#Q"/><use transform="matrix(0.01953125,0,0,0.01953125,45.625,0)" xlink:href="#Q"/><use transform="matrix(0.01953125,0,0,0.01953125,68.02734375,0)" xlink:href="#S"/><use transform="matrix(0.01953125,0,0,0.01953125,92.55859375,0)" xlink:href="#ag"/><use transform="matrix(0.01953125,0,0,0.01953125,116.09375,0)" xlink:href="#ak"/><use transform="matrix(0.01953125,0,0,0.01953125,126.93359375,0)" xlink:href="#O"/><use transform="matrix(0.01953125,0,0,0.01953125,150.15625,0)" xlink:href="#M"/><use transform="matrix(0.01953125,0,0,0.01953125,164.4140625,0)" xlink:href="#Y"/><use transform="matrix(0.01953125,0,0,0.01953125,188.2421875,0)" xlink:href="#ae"/><use transform="matrix(0.01953125,0,0,0.01953125,214.1796875,0)" xlink:href="#U"/><use transform="matrix(0.01953125,0,0,0.01953125,233.22265625,0)" xlink:href="#an"/><use transform="matrix(0.01953125,0,0,0.01953125,267.2265625,0)" xlink:href="#ak"/><use transform="matrix(0.01953125,0,0,0.01953125,278.06640625,0)" xlink:href="#M"/><use transform="matrix(0.01953125,0,0,0.01953125,292.8125,0)" xlink:href="#am"/></g><path fill="#333" d="M120 0v-182l551-686v-8H137v-242h897v199L514-250v8h539V0H120" id="ao"/><g id="v"><use transform="matrix(0.01953125,0,0,0.01953125,0,0)" xlink:href="#T"/><use transform="matrix(0.01953125,0,0,0.01953125,36.50390625,0)" xlink:href="#Y"/><use transform="matrix(0.01953125,0,0,0.01953125,60.33203125,0)" xlink:href="#M"/><use transform="matrix(0.01953125,0,0,0.01953125,75.17578125,0)" xlink:href="#O"/><use transform="matrix(0.01953125,0,0,0.01953125,98.3984375,0)" xlink:href="#Q"/><use transform="matrix(0.01953125,0,0,0.01953125,120.80078125,0)" xlink:href="#M"/><use transform="matrix(0.01953125,0,0,0.01953125,135.64453125,0)" xlink:href="#O"/><use transform="matrix(0.01953125,0,0,0.01953125,158.8671875,0)" xlink:href="#Q"/><use transform="matrix(0.01953125,0,0,0.01953125,181.26953125,0)" xlink:href="#ak"/><use transform="matrix(0.01953125,0,0,0.01953125,192.109375,0)" xlink:href="#ao"/><use transform="matrix(0.01953125,0,0,0.01953125,214.21875,0)" xlink:href="#Y"/><use transform="matrix(0.01953125,0,0,0.01953125,238.046875,0)" xlink:href="#Q"/><use transform="matrix(0.01953125,0,0,0.01953125,260.44921875,0)" xlink:href="#U"/><use transform="matrix(0.01953125,0,0,0.01953125,279.4921875,0)" xlink:href="#M"/><use transform="matrix(0.01953125,0,0,0.01953125,293.75,0)" xlink:href="#S"/></g><g id="w"><use transform="matrix(0.01953125,0,0,0.01953125,0,0)" xlink:href="#M"/><use transform="matrix(0.01953125,0,0,0.01953125,14.6484375,0)" xlink:href="#N"/><use transform="matrix(0.01953125,0,0,0.01953125,29.9609375,0)" xlink:href="#Y"/><use transform="matrix(0.01953125,0,0,0.01953125,54.1796875,0)" xlink:href="#O"/><use transform="matrix(0.01953125,0,0,0.01953125,77.40234375,0)" xlink:href="#M"/><use transform="matrix(0.01953125,0,0,0.01953125,91.66015625,0)" xlink:href="#Y"/><use transform="matrix(0.01953125,0,0,0.01953125,115.48828125,0)" xlink:href="#ae"/><use transform="matrix(0.01953125,0,0,0.01953125,141.42578125,0)" xlink:href="#U"/><use transform="matrix(0.01953125,0,0,0.01953125,160.46875,0)" xlink:href="#an"/><use transform="matrix(0.01953125,0,0,0.01953125,194.47265625,0)" xlink:href="#ak"/><use transform="matrix(0.01953125,0,0,0.01953125,205.3125,0)" xlink:href="#M"/><use transform="matrix(0.01953125,0,0,0.01953125,220.05859375,0)" xlink:href="#am"/></g><g id="x"><use transform="matrix(0.01953125,0,0,0.01953125,0,0)" xlink:href="#V"/><use transform="matrix(0.01953125,0,0,0.01953125,14.6484375,0)" xlink:href="#E"/><use transform="matrix(0.01953125,0,0,0.01953125,29.9609375,0)" xlink:href="#L"/><use transform="matrix(0.01953125,0,0,0.01953125,54.1796875,0)" xlink:href="#G"/><use transform="matrix(0.01953125,0,0,0.01953125,77.40234375,0)" xlink:href="#V"/><use transform="matrix(0.01953125,0,0,0.01953125,92.05078125,0)" xlink:href="#I"/><use transform="matrix(0.01953125,0,0,0.01953125,128.5546875,0)" xlink:href="#L"/><use transform="matrix(0.01953125,0,0,0.01953125,152.3828125,0)" xlink:href="#H"/><use transform="matrix(0.01953125,0,0,0.01953125,177.28515625,0)" xlink:href="#V"/></g><path fill="#333" d="M120 396l69-226c123 42 245 23 254-107l8-60L31-1118h319c87 288 199 559 259 872 72-308 185-583 277-872h315L726 132c-68 181-186 294-410 294-79 0-153-13-196-30" id="ap"/><g id="y"><use transform="matrix(0.01953125,0,0,0.01953125,0,0)" xlink:href="#M"/><use transform="matrix(0.01953125,0,0,0.01953125,14.84375,0)" xlink:href="#O"/><use transform="matrix(0.01953125,0,0,0.01953125,38.06640625,0)" xlink:href="#N"/><use transform="matrix(0.01953125,0,0,0.01953125,53.37890625,0)" xlink:href="#aa"/><use transform="matrix(0.01953125,0,0,0.01953125,78.65234375,0)" xlink:href="#Y"/><use transform="matrix(0.01953125,0,0,0.01953125,102.48046875,0)" xlink:href="#M"/><use transform="matrix(0.01953125,0,0,0.01953125,116.73828125,0)" xlink:href="#Y"/><use transform="matrix(0.01953125,0,0,0.01953125,140.56640625,0)" xlink:href="#ae"/><use transform="matrix(0.01953125,0,0,0.01953125,166.50390625,0)" xlink:href="#U"/><use transform="matrix(0.01953125,0,0,0.01953125,186.89453125,0)" xlink:href="#X"/><use transform="matrix(0.01953125,0,0,0.01953125,211.38671875,0)" xlink:href="#ap"/></g><path d="M128 0v-1490h300v802h17l366-430h347L740-633 1179 0H826L514-456l-86 97V0H128" id="aq"/><g id="z"><use transform="matrix(0.01953125,0,0,0.01953125,0,0)" xlink:href="#E"/><use transform="matrix(0.01953125,0,0,0.01953125,16.58203125,0)" xlink:href="#af"/><use transform="matrix(0.01953125,0,0,0.01953125,27.421875,0)" xlink:href="#ac"/><use transform="matrix(0.01953125,0,0,0.01953125,49.82421875,0)" xlink:href="#aq"/></g><path d="M750-1118v229H516V0H217v-889H20v-229h197v-86c0-238 156-356 363-356 94 0 178 20 215 31l-54 226c-25-7-61-15-100-15-123-3-131 84-125 200h234" id="ar"/><g id="A"><use transform="matrix(0.01953125,0,0,0.01953125,0,0)" xlink:href="#ar"/><use transform="matrix(0.01953125,0,0,0.01953125,15.13671875,0)" xlink:href="#G"/><use transform="matrix(0.01953125,0,0,0.01953125,38.359375,0)" xlink:href="#K"/><use transform="matrix(0.01953125,0,0,0.01953125,61.89453125,0)" xlink:href="#V"/><use transform="matrix(0.01953125,0,0,0.01953125,76.15234375,0)" xlink:href="#D"/><use transform="matrix(0.01953125,0,0,0.01953125,100.68359375,0)" xlink:href="#E"/></g><g id="B"><use transform="matrix(0.01953125,0,0,0.01953125,0,0)" xlink:href="#ag"/><use transform="matrix(0.01953125,0,0,0.01953125,23.92578125,0)" xlink:href="#O"/><use transform="matrix(0.01953125,0,0,0.01953125,47.1484375,0)" xlink:href="#P"/><use transform="matrix(0.01953125,0,0,0.01953125,72.05078125,0)" xlink:href="#U"/><use transform="matrix(0.01953125,0,0,0.01953125,91.09375,0)" xlink:href="#ag"/><use transform="matrix(0.01953125,0,0,0.01953125,115.01953125,0)" xlink:href="#O"/><use transform="matrix(0.01953125,0,0,0.01953125,138.2421875,0)" xlink:href="#ad"/><use transform="matrix(0.01953125,0,0,0.01953125,163.14453125,0)" xlink:href="#Q"/><use transform="matrix(0.01953125,0,0,0.01953125,185.546875,0)" xlink:href="#Y"/></g><path d="M975 0v231H0V0h975" id="as"/><g id="C"><use transform="matrix(0.01953125,0,0,0.01953125,0,0)" xlink:href="#af"/><use transform="matrix(0.01953125,0,0,0.01953125,10.83984375,0)" xlink:href="#H"/><use transform="matrix(0.01953125,0,0,0.01953125,35.7421875,0)" xlink:href="#K"/><use transform="matrix(0.01953125,0,0,0.01953125,59.27734375,0)" xlink:href="#E"/><use transform="matrix(0.01953125,0,0,0.01953125,74.58984375,0)" xlink:href="#L"/><use transform="matrix(0.01953125,0,0,0.01953125,98.80859375,0)" xlink:href="#G"/><use transform="matrix(0.01953125,0,0,0.01953125,122.03125,0)" xlink:href="#ac"/><use transform="matrix(0.01953125,0,0,0.01953125,144.43359375,0)" xlink:href="#L"/><use transform="matrix(0.01953125,0,0,0.01953125,168.26171875,0)" xlink:href="#ac"/><use transform="matrix(0.01953125,0,0,0.01953125,190.6640625,0)" xlink:href="#as"/><use transform="matrix(0.01953125,0,0,0.01953125,211.0546875,0)" xlink:href="#E"/><use transform="matrix(0.01953125,0,0,0.01953125,227.63671875,0)" xlink:href="#af"/><use transform="matrix(0.01953125,0,0,0.01953125,238.4765625,0)" xlink:href="#ac"/><use transform="matrix(0.01953125,0,0,0.01953125,260.87890625,0)" xlink:href="#aq"/><use transform="matrix(0.01953125,0,0,0.01953125,284.08203125,0)" xlink:href="#as"/><use transform="matrix(0.01953125,0,0,0.01953125,303.125,0)" xlink:href="#D"/><use transform="matrix(0.01953125,0,0,0.01953125,327.65625,0)" xlink:href="#ar"/></g></defs></g></svg>